<svg width="48" height="20" viewBox="0 0 48 20" fill="none" xmlns="http://www.w3.org/2000/svg">
<path d="M3.73174 0.278687H0V4.01043H3.73174V0.278687Z" fill="#00AAE8"/>
<path d="M3.63801 19.7211V6.28154H0.105469V19.7211H3.63801ZM27.1174 19.8539V16.5604C26.5995 16.5604 26.1612 16.5339 25.8425 16.4807C25.4707 16.4276 25.1918 16.2948 25.0059 16.1089C24.8199 15.923 24.7004 15.6574 24.634 15.3121C24.5809 14.9801 24.5543 14.5418 24.5543 14.0106V9.30943H27.1174V6.28154H24.5543V1.03586H21.0085V14.0372C21.0085 15.1394 21.1015 16.0691 21.2874 16.8127C21.4733 17.5432 21.7921 18.1408 22.2303 18.5923C22.6686 19.0438 23.2529 19.3625 23.9567 19.5618C24.6739 19.761 25.5769 19.8539 26.6526 19.8539H27.1174ZM47.4096 19.7211V0H43.8638V19.7211H47.4096ZM17.5955 7.59628C16.6128 6.53386 15.2316 6.00266 13.4786 6.00266C12.6287 6.00266 11.8585 6.1753 11.1546 6.52059C10.464 6.86587 9.86643 7.34396 9.40162 7.95485L9.20242 8.20717V7.98141V6.28154H5.70972V19.7211H9.22898V12.5631V13.0545C9.22898 12.9748 9.22898 12.8951 9.22898 12.8154C9.26882 11.5538 9.57426 10.6242 10.1586 10.0266C10.7828 9.38911 11.5397 9.07039 12.4029 9.07039C13.4255 9.07039 14.2091 9.38911 14.727 10C15.2316 10.6109 15.4972 11.4741 15.4972 12.5764V12.6029V19.7078H19.0696V12.085C19.0829 10.1726 18.5782 8.6587 17.5955 7.59628ZM42.0311 12.9748C42.0311 12.0053 41.8585 11.1023 41.5265 10.2523C41.1812 9.41567 40.7031 8.67198 40.1055 8.03453C39.4946 7.39708 38.7642 6.90571 37.9142 6.54715C37.0643 6.18858 36.1214 6.01594 35.0988 6.01594C34.1294 6.01594 33.213 6.20186 32.3631 6.56043C31.5132 6.93227 30.7695 7.42364 30.1453 8.04781C29.5211 8.67198 29.0165 9.41567 28.6579 10.2656C28.2861 11.1155 28.1134 12.0319 28.1134 13.0013C28.1134 13.9708 28.2861 14.8871 28.6314 15.7371C28.9767 16.587 29.468 17.3307 30.0789 17.9548C30.6898 18.579 31.4468 19.0837 32.3233 19.4422C33.1998 19.8141 34.1692 20 35.2051 20C38.2064 20 40.0656 18.6321 41.1812 17.3572L38.6314 15.4183C38.1002 16.0558 36.8253 16.919 35.2316 16.919C34.2356 16.919 33.4122 16.6932 32.7881 16.2284C32.1639 15.7769 31.7389 15.1394 31.5132 14.3559L31.4733 14.2364H42.0311V12.9748ZM31.4999 11.7397C31.4999 10.757 32.6287 9.04383 35.059 9.03054C37.4893 9.03054 38.6314 10.7437 38.6314 11.7264L31.4999 11.7397Z" fill="#1D2328"/>
</svg>
