<svg width="74" height="20" viewBox="0 0 74 20" fill="none" xmlns="http://www.w3.org/2000/svg">
<path d="M58.3593 5.99005L61.0828 3.98022H51.9648V16.0195H61.0828V14.0097H54.57V10.9358H60.1355V8.92598H54.57V5.99005H58.3593Z" fill="#21A038"/>
<path d="M45.0793 8.66982H41.9215V5.99005H46.9739L49.6975 3.98022H39.3164V16.0195H44.7438C47.7831 16.0195 49.5396 14.6402 49.5396 12.2363C49.5396 9.93089 47.9607 8.66982 45.0793 8.66982ZM44.6451 14.0097H41.9215V10.6797H44.6451C46.3029 10.6797 47.0726 11.2314 47.0726 12.3545C47.0726 13.4776 46.2437 14.0097 44.6451 14.0097Z" fill="#21A038"/>
<path d="M68.4654 3.98022H63.5117V16.0195H66.1168V12.6107H68.4851C71.6429 12.6107 73.6165 10.9555 73.6165 8.29544C73.6165 5.63538 71.6429 3.98022 68.4654 3.98022ZM68.4062 10.6008H66.0971V5.99005H68.4062C70.0837 5.99005 70.9916 6.81763 70.9916 8.29544C70.9916 9.77326 70.0837 10.6008 68.4062 10.6008Z" fill="#21A038"/>
<path d="M34.8542 13.4186C34.1634 13.793 33.3937 13.9901 32.6043 13.9901C30.2558 13.9901 28.5585 12.3152 28.5585 10.0098C28.5585 7.70442 30.2558 6.02956 32.6043 6.02956C33.453 6.00986 34.2819 6.28572 34.9726 6.77832L36.8475 5.39903L36.7291 5.2808C35.6436 4.3153 34.1832 3.82269 32.5254 3.82269C30.7294 3.82269 29.0913 4.43352 27.9072 5.53696C26.723 6.6798 26.052 8.27584 26.0915 9.93099C26.0718 11.6059 26.723 13.2216 27.9072 14.4038C29.1505 15.5664 30.8084 16.2166 32.5056 16.1772C34.3805 16.1772 36.0186 15.527 37.1238 14.3447L35.4463 13.1034L34.8542 13.4186Z" fill="#21A038"/>
<path d="M17.9381 3.90155C18.4118 4.51238 18.8065 5.18232 19.142 5.89167L10.0241 12.6108L6.19531 10.2069V7.33008L10.0043 9.71429L17.9381 3.90155Z" fill="#21A038"/>
<path d="M2.30909 10.0104C2.30909 9.87243 2.30909 9.7542 2.32883 9.61627L0.0197358 9.49805C0.0197358 9.65568 0 9.83302 0 9.99065C0 12.7492 1.12494 15.2517 2.94064 17.0645L4.57871 15.429C3.17747 14.0497 2.30909 12.1384 2.30909 10.0104Z" fill="url(#paint0_linear)"/>
<path d="M10.0068 2.32547C10.145 2.32547 10.2634 2.32547 10.4015 2.34518L10.52 0.0397848C10.3621 0.0397848 10.1845 0.0200806 10.0266 0.0200806C7.26355 0.0200806 4.7571 1.14322 2.94141 2.95601L4.57948 4.59145C5.96099 3.19246 7.8951 2.32547 10.0068 2.32547Z" fill="url(#paint1_linear)"/>
<path d="M10.0092 17.6944C9.87107 17.6944 9.75266 17.6944 9.61451 17.6747L9.49609 19.9801C9.65398 19.9801 9.8316 19.9998 9.98949 19.9998C12.7525 19.9998 15.259 18.8766 17.0746 17.0639L15.4366 15.4284C14.0551 16.8471 12.1407 17.6944 10.0092 17.6944Z" fill="url(#paint2_linear)"/>
<path d="M14.3458 3.66498L16.2996 2.22657C14.5826 0.847281 12.3919 0 10.0039 0V2.30539C11.6222 2.3251 13.1222 2.8177 14.3458 3.66498Z" fill="url(#paint3_linear)"/>
<path d="M20.0347 10.0101C20.0347 9.39929 19.9755 8.80817 19.8768 8.21704L17.7256 9.81308C17.7256 9.87219 17.7256 9.95101 17.7256 10.0101C17.7256 12.2761 16.7388 14.3056 15.1797 15.7046L16.7388 17.4189C18.7519 15.6061 20.0347 12.946 20.0347 10.0101Z" fill="#21A038"/>
<path d="M10.0066 17.6946C7.73699 17.6946 5.7042 16.7094 4.30295 15.1528L2.58594 16.7094C4.42137 18.7389 7.06597 20 10.0066 20V17.6946Z" fill="url(#paint4_linear)"/>
<path d="M4.85501 4.31558L3.29588 2.60132C1.26309 4.43381 0 7.07417 0 10.0101H2.30909C2.30909 7.76382 3.29588 5.71458 4.85501 4.31558Z" fill="url(#paint5_linear)"/>
<defs>
<linearGradient id="paint0_linear" x1="2.70178" y1="16.784" x2="0.345116" y2="9.98274" gradientUnits="userSpaceOnUse">
<stop offset="0.1444" stop-color="#F2E913"/>
<stop offset="0.3037" stop-color="#E7E518"/>
<stop offset="0.5823" stop-color="#CADB26"/>
<stop offset="0.891" stop-color="#A3CD39"/>
</linearGradient>
<linearGradient id="paint1_linear" x1="3.59962" y1="2.68872" x2="9.588" y2="0.41031" gradientUnits="userSpaceOnUse">
<stop offset="0.0592" stop-color="#0FA8E0"/>
<stop offset="0.5385" stop-color="#0099F9"/>
<stop offset="0.9234" stop-color="#0291EB"/>
</linearGradient>
<linearGradient id="paint2_linear" x1="9.36051" y1="18.0332" x2="16.4978" y2="16.4227" gradientUnits="userSpaceOnUse">
<stop offset="0.1226" stop-color="#A3CD39"/>
<stop offset="0.2846" stop-color="#86C339"/>
<stop offset="0.8693" stop-color="#21A038"/>
</linearGradient>
<linearGradient id="paint3_linear" x1="9.52948" y1="1.47503" x2="15.465" y2="3.30346" gradientUnits="userSpaceOnUse">
<stop offset="0.0566" stop-color="#0291EB"/>
<stop offset="0.79" stop-color="#0C8ACB"/>
</linearGradient>
<linearGradient id="paint4_linear" x1="3.17306" y1="17.0839" x2="9.54662" y2="19.4614" gradientUnits="userSpaceOnUse">
<stop offset="0.1324" stop-color="#F2E913"/>
<stop offset="0.2977" stop-color="#EBE716"/>
<stop offset="0.5306" stop-color="#D9E01F"/>
<stop offset="0.8023" stop-color="#BBD62D"/>
<stop offset="0.9829" stop-color="#A3CD39"/>
</linearGradient>
<linearGradient id="paint5_linear" x1="1.757" y1="10.2886" x2="4.3054" y2="3.66986" gradientUnits="userSpaceOnUse">
<stop offset="0.0698" stop-color="#A3CD39"/>
<stop offset="0.2599" stop-color="#81C55F"/>
<stop offset="0.9216" stop-color="#0FA8E0"/>
</linearGradient>
</defs>
</svg>
