<svg width="14" height="14" viewBox="0 0 14 14" fill="none" xmlns="http://www.w3.org/2000/svg">
<path d="M7 7.5H6.25V7.92464L6.61413 8.14312L7 7.5ZM12.25 7C12.25 9.8995 9.8995 12.25 7 12.25V13.75C10.7279 13.75 13.75 10.7279 13.75 7H12.25ZM7 12.25C4.10051 12.25 1.75 9.8995 1.75 7H0.25C0.25 10.7279 3.27208 13.75 7 13.75V12.25ZM1.75 7C1.75 4.10051 4.10051 1.75 7 1.75V0.25C3.27208 0.25 0.25 3.27208 0.25 7H1.75ZM7 1.75C9.8995 1.75 12.25 4.10051 12.25 7H13.75C13.75 3.27208 10.7279 0.25 7 0.25V1.75ZM6.25 4V7.5H7.75V4H6.25ZM6.61413 8.14312L9.11413 9.64312L9.88587 8.35688L7.38587 6.85688L6.61413 8.14312Z" fill="#888B90"/>
</svg>
