<svg width="63" height="18" viewBox="0 0 63 18" fill="none" xmlns="http://www.w3.org/2000/svg">
<path d="M49.9441 5.12628L52.2749 3.40625H44.4717V13.7096H52.2749V11.9896H46.7012V9.35891H51.4642V7.63888H46.7012V5.12628H49.9441Z" fill="#21A038"/>
<path d="M38.5765 7.41966H35.874V5.12628H40.1979L42.5287 3.40625H33.6445V13.7096H38.2893C40.8904 13.7096 42.3936 12.5292 42.3936 10.4719C42.3936 8.4989 41.0424 7.41966 38.5765 7.41966ZM38.2049 11.9896H35.874V9.13969H38.2049C39.6236 9.13969 40.2824 9.61186 40.2824 10.5731C40.2824 11.5342 39.573 11.9896 38.2049 11.9896Z" fill="#21A038"/>
<path d="M58.592 3.40625H54.3525V13.7096H56.582V10.7923H58.6089C61.3113 10.7923 63.0003 9.37578 63.0003 7.09926C63.0003 4.82275 61.3113 3.40625 58.592 3.40625ZM58.5413 9.07224H56.5651V5.12628H58.5413C59.977 5.12628 60.7539 5.83453 60.7539 7.09926C60.7539 8.36399 59.977 9.07224 58.5413 9.07224Z" fill="#21A038"/>
<path d="M29.8278 11.4838C29.2366 11.8042 28.5779 11.9728 27.9023 11.9728C25.8924 11.9728 24.4398 10.5395 24.4398 8.56649C24.4398 6.59351 25.8924 5.16015 27.9023 5.16015C28.6286 5.14328 29.338 5.37937 29.9291 5.80094L31.5337 4.62053L31.4323 4.51935C30.5034 3.69306 29.2535 3.27148 27.8347 3.27148C26.2977 3.27148 24.8959 3.79424 23.8825 4.73857C22.869 5.71663 22.2948 7.08254 22.3286 8.49904C22.3117 9.9324 22.869 11.3152 23.8825 12.327C24.9465 13.3219 26.3653 13.8784 27.8179 13.8446C29.4224 13.8446 30.8243 13.2881 31.7701 12.2764L30.3345 11.214L29.8278 11.4838Z" fill="#21A038"/>
<path d="M15.3543 3.33887C15.7597 3.86162 16.0975 4.43497 16.3846 5.04204L8.58137 10.7923L5.30469 8.73505V6.27304L8.56448 8.31347L15.3543 3.33887Z" fill="#21A038"/>
<path d="M1.97615 8.56686C1.97615 8.44882 1.97615 8.34764 1.99304 8.2296L0.0168901 8.12842C0.0168901 8.26332 0 8.41509 0 8.54999C0 10.9108 0.962738 13.0524 2.51663 14.6038L3.91851 13.2042C2.71931 12.0238 1.97615 10.3881 1.97615 8.56686Z" fill="url(#paint0_linear)"/>
<path d="M8.5662 1.99007C8.68443 1.99007 8.78577 1.99007 8.904 2.00693L9.00534 0.0339529C8.87022 0.0339529 8.71821 0.0170898 8.58309 0.0170898C6.21847 0.0170898 4.07342 0.978285 2.51953 2.52969L3.92141 3.92932C5.10372 2.73204 6.75895 1.99007 8.5662 1.99007Z" fill="url(#paint1_linear)"/>
<path d="M8.56805 15.1434C8.44982 15.1434 8.34848 15.1434 8.23025 15.1265L8.12891 17.0995C8.26403 17.0995 8.41604 17.1163 8.55116 17.1163C10.9158 17.1163 13.0608 16.1551 14.6147 14.6037L13.2128 13.2041C12.0305 14.4182 10.3922 15.1434 8.56805 15.1434Z" fill="url(#paint2_linear)"/>
<path d="M12.2744 3.13653L13.9465 1.90553C12.4771 0.725112 10.6023 0 8.55859 0V1.97298C9.94358 1.98984 11.2272 2.41142 12.2744 3.13653Z" fill="url(#paint3_linear)"/>
<path d="M17.1433 8.56628C17.1433 8.04352 17.0926 7.53763 17.0081 7.03174L15.1671 8.39765C15.1671 8.44824 15.1671 8.51569 15.1671 8.56628C15.1671 10.5055 14.3226 12.2424 12.9883 13.4397L14.3226 14.9068C16.0454 13.3554 17.1433 11.0789 17.1433 8.56628Z" fill="#21A038"/>
<path d="M8.5626 15.1431C6.62024 15.1431 4.88056 14.3 3.68136 12.9678L2.21191 14.3C3.7827 16.0369 6.04597 17.1161 8.5626 17.1161V15.1431Z" fill="url(#paint4_linear)"/>
<path d="M4.15497 3.69365L2.82065 2.22656C1.08097 3.79483 0 6.05448 0 8.56708H1.97615C1.97615 6.64469 2.82065 4.89093 4.15497 3.69365Z" fill="url(#paint5_linear)"/>
<defs>
<linearGradient id="paint0_linear" x1="2.31221" y1="14.3638" x2="0.295353" y2="8.54323" gradientUnits="userSpaceOnUse">
<stop offset="0.1444" stop-color="#F2E913"/>
<stop offset="0.3037" stop-color="#E7E518"/>
<stop offset="0.5823" stop-color="#CADB26"/>
<stop offset="0.891" stop-color="#A3CD39"/>
</linearGradient>
<linearGradient id="paint1_linear" x1="3.08283" y1="2.30094" x2="8.20776" y2="0.351053" gradientUnits="userSpaceOnUse">
<stop offset="0.0592" stop-color="#0FA8E0"/>
<stop offset="0.5385" stop-color="#0099F9"/>
<stop offset="0.9234" stop-color="#0291EB"/>
</linearGradient>
<linearGradient id="paint2_linear" x1="8.01287" y1="15.4333" x2="14.121" y2="14.055" gradientUnits="userSpaceOnUse">
<stop offset="0.1226" stop-color="#A3CD39"/>
<stop offset="0.2846" stop-color="#86C339"/>
<stop offset="0.8693" stop-color="#21A038"/>
</linearGradient>
<linearGradient id="paint3_linear" x1="8.15257" y1="1.26235" x2="13.2322" y2="2.82714" gradientUnits="userSpaceOnUse">
<stop offset="0.0566" stop-color="#0291EB"/>
<stop offset="0.79" stop-color="#0C8ACB"/>
</linearGradient>
<linearGradient id="paint4_linear" x1="2.71438" y1="14.6204" x2="8.16894" y2="16.6552" gradientUnits="userSpaceOnUse">
<stop offset="0.1324" stop-color="#F2E913"/>
<stop offset="0.2977" stop-color="#EBE716"/>
<stop offset="0.5306" stop-color="#D9E01F"/>
<stop offset="0.8023" stop-color="#BBD62D"/>
<stop offset="0.9829" stop-color="#A3CD39"/>
</linearGradient>
<linearGradient id="paint5_linear" x1="1.50366" y1="8.80538" x2="3.68461" y2="3.14104" gradientUnits="userSpaceOnUse">
<stop offset="0.0698" stop-color="#A3CD39"/>
<stop offset="0.2599" stop-color="#81C55F"/>
<stop offset="0.9216" stop-color="#0FA8E0"/>
</linearGradient>
</defs>
</svg>
